<?xml version="1.0" standalone="no"?>
<!DOCTYPE svg PUBLIC "-//W3C//DTD SVG 20010904//EN"
 "http://www.w3.org/TR/2001/REC-SVG-20010904/DTD/svg10.dtd">
<svg version="1.0" xmlns="http://www.w3.org/2000/svg"
 width="260.000000pt" height="260.000000pt" viewBox="0 0 260.000000 260.000000"
 preserveAspectRatio="xMidYMid meet">
<metadata>
Created by potrace 1.11, written by Peter Selinger 2001-2013
</metadata>
<g transform="translate(0.000000,260.000000) scale(0.100000,-0.100000)"
fill="#000000" stroke="none">
<path d="M782 1788 c-18 -18 -14 -46 8 -53 11 -3 22 -16 24 -28 4 -20 2 -822
-2 -839 -1 -4 -11 -10 -22 -13 -22 -7 -26 -35 -8 -53 18 -18 192 -16 207 2 16
19 10 38 -14 51 -19 10 -20 21 -21 378 -1 202 3 367 7 367 5 0 9 -5 9 -11 0
-5 5 -7 10 -4 6 4 9 3 8 -2 -3 -8 9 -23 69 -92 18 -20 33 -40 33 -44 0 -5 5
-5 10 -2 6 3 10 -1 10 -9 0 -8 6 -19 13 -23 6 -4 28 -28 48 -53 20 -25 47 -57
60 -71 13 -14 44 -50 69 -79 25 -30 52 -61 60 -70 8 -9 40 -45 70 -80 30 -36
57 -67 61 -70 3 -3 27 -31 53 -64 l47 -58 -20 -20 c-17 -15 -19 -23 -11 -38
10 -18 22 -20 123 -20 116 0 137 6 137 41 0 10 -11 20 -25 23 l-25 6 0 434 0
433 25 11 c14 6 25 18 25 25 0 29 -25 37 -122 37 -86 0 -99 -2 -108 -19 -10
-20 -8 -24 32 -57 10 -8 13 -81 11 -335 0 -178 -2 -328 -2 -334 -2 -11 -131
127 -131 139 0 3 -12 17 -27 33 -16 16 -39 42 -53 58 -100 119 -216 252 -229
263 -8 6 -12 12 -8 12 3 0 -4 10 -16 23 -52 56 -85 94 -102 120 -18 27 -18 28
2 33 20 5 24 28 9 52 -10 17 -277 17 -294 0z"/>
</g>
</svg>
